<mxfile host="app.diagrams.net" agent="Mozilla/5.0 (Windows NT 10.0; Win64; x64) AppleWebKit/537.36 (KHTML, like Gecko) Chrome/135.0.0.0 Safari/537.36 OPR/120.0.0.0 (Edition std-2)" version="28.0.6">
  <diagram name="PÃ¡gina-1" id="0Tp2Uar5n5qCazNiLorj">
    <mxGraphModel dx="1179" dy="704" grid="1" gridSize="10" guides="1" tooltips="1" connect="1" arrows="1" fold="1" page="1" pageScale="1" pageWidth="827" pageHeight="1169" math="0" shadow="0">
      <root>
        <mxCell id="0" />
        <mxCell id="1" parent="0" />
        <mxCell id="1EzJDyDQBjF1etKXW1SK-9" style="edgeStyle=orthogonalEdgeStyle;rounded=0;orthogonalLoop=1;jettySize=auto;html=1;exitX=0;exitY=0.3333333333333333;exitDx=0;exitDy=0;exitPerimeter=0;entryX=1;entryY=0.5;entryDx=0;entryDy=0;" edge="1" parent="1" source="1EzJDyDQBjF1etKXW1SK-1" target="1EzJDyDQBjF1etKXW1SK-2">
          <mxGeometry relative="1" as="geometry" />
        </mxCell>
        <mxCell id="1EzJDyDQBjF1etKXW1SK-10" style="edgeStyle=orthogonalEdgeStyle;rounded=0;orthogonalLoop=1;jettySize=auto;html=1;exitX=0;exitY=0.3333333333333333;exitDx=0;exitDy=0;exitPerimeter=0;entryX=1;entryY=0.5;entryDx=0;entryDy=0;" edge="1" parent="1" source="1EzJDyDQBjF1etKXW1SK-1" target="1EzJDyDQBjF1etKXW1SK-3">
          <mxGeometry relative="1" as="geometry" />
        </mxCell>
        <mxCell id="1EzJDyDQBjF1etKXW1SK-11" style="edgeStyle=orthogonalEdgeStyle;rounded=0;orthogonalLoop=1;jettySize=auto;html=1;exitX=0;exitY=0.3333333333333333;exitDx=0;exitDy=0;exitPerimeter=0;entryX=1;entryY=0.5;entryDx=0;entryDy=0;" edge="1" parent="1">
          <mxGeometry relative="1" as="geometry">
            <mxPoint x="397.5" y="333.33333333333337" as="sourcePoint" />
            <mxPoint x="283.9999999999993" y="505" as="targetPoint" />
            <Array as="points">
              <mxPoint x="333" y="333" />
              <mxPoint x="333" y="505" />
            </Array>
          </mxGeometry>
        </mxCell>
        <mxCell id="1EzJDyDQBjF1etKXW1SK-12" style="edgeStyle=orthogonalEdgeStyle;rounded=0;orthogonalLoop=1;jettySize=auto;html=1;exitX=1;exitY=0.3333333333333333;exitDx=0;exitDy=0;exitPerimeter=0;entryX=0;entryY=0.5;entryDx=0;entryDy=0;" edge="1" parent="1" source="1EzJDyDQBjF1etKXW1SK-1" target="1EzJDyDQBjF1etKXW1SK-5">
          <mxGeometry relative="1" as="geometry" />
        </mxCell>
        <mxCell id="1EzJDyDQBjF1etKXW1SK-13" style="edgeStyle=orthogonalEdgeStyle;rounded=0;orthogonalLoop=1;jettySize=auto;html=1;exitX=1;exitY=0.3333333333333333;exitDx=0;exitDy=0;exitPerimeter=0;entryX=0;entryY=0.5;entryDx=0;entryDy=0;" edge="1" parent="1" source="1EzJDyDQBjF1etKXW1SK-1" target="1EzJDyDQBjF1etKXW1SK-6">
          <mxGeometry relative="1" as="geometry" />
        </mxCell>
        <mxCell id="1EzJDyDQBjF1etKXW1SK-14" style="edgeStyle=orthogonalEdgeStyle;rounded=0;orthogonalLoop=1;jettySize=auto;html=1;exitX=1;exitY=0.3333333333333333;exitDx=0;exitDy=0;exitPerimeter=0;entryX=0;entryY=0.5;entryDx=0;entryDy=0;" edge="1" parent="1" source="1EzJDyDQBjF1etKXW1SK-1" target="1EzJDyDQBjF1etKXW1SK-7">
          <mxGeometry relative="1" as="geometry" />
        </mxCell>
        <mxCell id="1EzJDyDQBjF1etKXW1SK-15" style="edgeStyle=orthogonalEdgeStyle;rounded=0;orthogonalLoop=1;jettySize=auto;html=1;exitX=1;exitY=0.3333333333333333;exitDx=0;exitDy=0;exitPerimeter=0;entryX=0;entryY=0.5;entryDx=0;entryDy=0;" edge="1" parent="1" source="1EzJDyDQBjF1etKXW1SK-1" target="1EzJDyDQBjF1etKXW1SK-8">
          <mxGeometry relative="1" as="geometry" />
        </mxCell>
        <mxCell id="1EzJDyDQBjF1etKXW1SK-1" value="Actor" style="shape=umlActor;verticalLabelPosition=bottom;verticalAlign=top;html=1;outlineConnect=0;" vertex="1" parent="1">
          <mxGeometry x="394.5" y="290" width="71" height="130" as="geometry" />
        </mxCell>
        <mxCell id="1EzJDyDQBjF1etKXW1SK-2" value="&lt;span style=&quot;font-size:12.0pt;line-height:115%;&lt;br/&gt;font-family:&amp;quot;Arial&amp;quot;,sans-serif;mso-fareast-font-family:Aptos;mso-fareast-theme-font:&lt;br/&gt;minor-latin;mso-bidi-font-family:&amp;quot;Times New Roman&amp;quot;;mso-bidi-theme-font:minor-bidi;&lt;br/&gt;mso-ansi-language:PT-BR;mso-fareast-language:EN-US;mso-bidi-language:AR-SA&quot;&gt;Cadastrar&lt;br&gt;Produto/Cliente&lt;/span&gt;" style="ellipse;whiteSpace=wrap;html=1;" vertex="1" parent="1">
          <mxGeometry x="80" y="160" width="190" height="90" as="geometry" />
        </mxCell>
        <mxCell id="1EzJDyDQBjF1etKXW1SK-3" value="&lt;span style=&quot;font-size:12.0pt;line-height:115%;&lt;br/&gt;font-family:&amp;quot;Arial&amp;quot;,sans-serif;mso-fareast-font-family:Aptos;mso-fareast-theme-font:&lt;br/&gt;minor-latin;mso-bidi-font-family:&amp;quot;Times New Roman&amp;quot;;mso-bidi-theme-font:minor-bidi;&lt;br/&gt;mso-ansi-language:PT-BR;mso-fareast-language:EN-US;mso-bidi-language:AR-SA&quot;&gt;Atualizar&lt;br&gt;o estoque do produto&lt;/span&gt;" style="ellipse;whiteSpace=wrap;html=1;" vertex="1" parent="1">
          <mxGeometry x="80" y="310" width="190" height="90" as="geometry" />
        </mxCell>
        <mxCell id="1EzJDyDQBjF1etKXW1SK-4" value="&lt;span style=&quot;font-size:12.0pt;line-height:115%;&lt;br/&gt;font-family:&amp;quot;Arial&amp;quot;,sans-serif;mso-fareast-font-family:Aptos;mso-fareast-theme-font:&lt;br/&gt;minor-latin;mso-bidi-font-family:&amp;quot;Times New Roman&amp;quot;;mso-bidi-theme-font:minor-bidi;&lt;br/&gt;mso-ansi-language:PT-BR;mso-fareast-language:EN-US;mso-bidi-language:AR-SA&quot;&gt;Excluir&lt;br&gt;cadastros de Produto&lt;/span&gt;" style="ellipse;whiteSpace=wrap;html=1;" vertex="1" parent="1">
          <mxGeometry x="90" y="460" width="191" height="90" as="geometry" />
        </mxCell>
        <mxCell id="1EzJDyDQBjF1etKXW1SK-5" value="&lt;span style=&quot;font-size:12.0pt;line-height:115%;&lt;br/&gt;font-family:&amp;quot;Arial&amp;quot;,sans-serif;mso-fareast-font-family:Aptos;mso-fareast-theme-font:&lt;br/&gt;minor-latin;mso-bidi-font-family:&amp;quot;Times New Roman&amp;quot;;mso-bidi-theme-font:minor-bidi;&lt;br/&gt;mso-ansi-language:PT-BR;mso-fareast-language:EN-US;mso-bidi-language:AR-SA&quot;&gt;Editar&lt;br/&gt;dados do Cliente/Produto&lt;/span&gt;" style="ellipse;whiteSpace=wrap;html=1;" vertex="1" parent="1">
          <mxGeometry x="570" y="160" width="190" height="90" as="geometry" />
        </mxCell>
        <mxCell id="1EzJDyDQBjF1etKXW1SK-6" value="&lt;span style=&quot;font-size:12.0pt;line-height:115%;&lt;br/&gt;font-family:&amp;quot;Arial&amp;quot;,sans-serif;mso-fareast-font-family:Aptos;mso-fareast-theme-font:&lt;br/&gt;minor-latin;mso-bidi-font-family:&amp;quot;Times New Roman&amp;quot;;mso-bidi-theme-font:minor-bidi;&lt;br/&gt;mso-ansi-language:PT-BR;mso-fareast-language:EN-US;mso-bidi-language:AR-SA&quot;&gt;Consultar&lt;br/&gt;o Produto/Cliente/Estoque&lt;/span&gt;" style="ellipse;whiteSpace=wrap;html=1;" vertex="1" parent="1">
          <mxGeometry x="570" y="310" width="190" height="90" as="geometry" />
        </mxCell>
        <mxCell id="1EzJDyDQBjF1etKXW1SK-7" value="&lt;span style=&quot;font-size:12.0pt;line-height:115%;&lt;br/&gt;font-family:&amp;quot;Arial&amp;quot;,sans-serif;mso-fareast-font-family:Aptos;mso-fareast-theme-font:&lt;br/&gt;minor-latin;mso-bidi-font-family:&amp;quot;Times New Roman&amp;quot;;mso-bidi-theme-font:minor-bidi;&lt;br/&gt;mso-ansi-language:PT-BR;mso-fareast-language:EN-US;mso-bidi-language:AR-SA&quot;&gt;Realizar&lt;br/&gt;venda&lt;/span&gt;" style="ellipse;whiteSpace=wrap;html=1;" vertex="1" parent="1">
          <mxGeometry x="570" y="460" width="190" height="90" as="geometry" />
        </mxCell>
        <mxCell id="1EzJDyDQBjF1etKXW1SK-8" value="&lt;span style=&quot;font-size:12.0pt;line-height:115%;&lt;br/&gt;font-family:&amp;quot;Arial&amp;quot;,sans-serif;mso-fareast-font-family:Aptos;mso-fareast-theme-font:&lt;br/&gt;minor-latin;mso-bidi-font-family:&amp;quot;Times New Roman&amp;quot;;mso-bidi-theme-font:minor-bidi;&lt;br/&gt;mso-ansi-language:PT-BR;mso-fareast-language:EN-US;mso-bidi-language:AR-SA&quot;&gt;Aplicar&lt;br/&gt;desconto&lt;/span&gt;" style="ellipse;whiteSpace=wrap;html=1;" vertex="1" parent="1">
          <mxGeometry x="570" y="610" width="190" height="90" as="geometry" />
        </mxCell>
      </root>
    </mxGraphModel>
  </diagram>
</mxfile>
